# xmcd
#
# Track frame offsets: 
#        150
#        24283
#        31465
#        43756
#        55852
#        69683
#        81509
#        95254
#        112442
#        141631
#        159120
#        184596
#        200605
#        221673
#        250255
#        278987
#        308327
#        325316
#
# Disc length: 4636 seconds
#
# Revision: 1
# Processed by: cddbd v1.5.2PL0 Copyright (c) Steve Scherf et al.
# Submitted via: ExactAudioCopy v0.95b2
#
DISCID=0b121a12
DTITLE=Van Morrison - The Genuine Philosophers Stone
DYEAR=1975
DGENRE=Celtic
TTITLE0=Stormy Monday
TTITLE1=Don't Start Crying Now
TTITLE2=Here Comes The Night
TTITLE3=Gloria
TTITLE4=All By Myself
TTITLE5=One More Time
TTITLE6=I Gave My Love A Diamond
TTITLE7=Here Comes The Night
TTITLE8=Turn On Your Lovelight
TTITLE9=Mighty Like A Rose
TTITLE10=Bayou Girl
TTITLE11=The Way Young Lovers Do
TTITLE12=Ballerina
TTITLE13=Bayou Girl
TTITLE14=Magic Night
TTITLE15=I Need Your Kind Of Loving, part 1
TTITLE16=I Need Your Kind Of Loving, part 2
TTITLE17=Mona Mona
EXTD=
EXTT0=
EXTT1=
EXTT2=
EXTT3=
EXTT4=
EXTT5=
EXTT6=
EXTT7=
EXTT8=
EXTT9=
EXTT10=
EXTT11=
EXTT12=
EXTT13=
EXTT14=
EXTT15=
EXTT16=
EXTT17=
PLAYORDER=
